<svg width="60" height="60" viewBox="0 0 60 60" fill="none" xmlns="http://www.w3.org/2000/svg">
<path d="M37.8363 27.37L37.1637 26.63V26.63L37.8363 27.37ZM37.1637 26.63L36.491 25.8901L36.491 25.8901L37.1637 26.63ZM29.25 33.8243L28.5773 34.5642C28.9587 34.911 29.5412 34.911 29.9227 34.5642L29.25 33.8243ZM21.3363 26.63L20.6637 27.37L20.6637 27.37L21.3363 26.63ZM20.63 26.6637L19.8901 25.991L19.8901 25.991L20.63 26.6637ZM20.6637 27.37L19.991 28.1099L19.991 28.1099L20.6637 27.37ZM28.9097 34.8664L29.5911 34.1344L29.5824 34.1264L28.9097 34.8664ZM29.25 35L29.2503 34H29.2503L29.25 35ZM29.4633 34.9523L29.0371 34.0477L29.0365 34.048L29.4633 34.9523ZM29.5903 34.8664L28.9176 34.1264L28.9089 34.1344L29.5903 34.8664ZM37.13 27.3363C36.9443 27.132 36.9593 26.8158 37.1637 26.63L38.509 28.1099C39.122 27.5527 39.1672 26.604 38.6099 25.991L37.13 27.3363ZM37.8363 27.37C37.632 27.5557 37.3158 27.5407 37.13 27.3363L38.6099 25.991C38.0526 25.378 37.104 25.3328 36.491 25.8901L37.8363 27.37ZM29.9227 34.5642L37.8363 27.37L36.491 25.8901L28.5773 33.0843L29.9227 34.5642ZM20.6637 27.37L28.5773 34.5642L29.9227 33.0843L22.009 25.8901L20.6637 27.37ZM21.37 27.3363C21.1842 27.5407 20.868 27.5557 20.6637 27.37L22.009 25.8901C21.396 25.3328 20.4473 25.378 19.8901 25.991L21.37 27.3363ZM21.3363 26.63C21.5407 26.8158 21.5557 27.132 21.37 27.3363L19.8901 25.991C19.3328 26.604 19.378 27.5527 19.991 28.1099L21.3363 26.63ZM29.5824 34.1264L21.3363 26.63L19.991 28.1099L28.237 35.6063L29.5824 34.1264ZM29.2503 34C29.3708 34 29.4945 34.0445 29.5911 34.1345L28.2283 35.5983C28.5153 35.8655 28.8836 35.9999 29.2497 36L29.2503 34ZM29.0365 34.048C29.1053 34.0155 29.1785 34 29.2503 34L29.2497 36C29.4671 36.0001 29.6863 35.9529 29.8902 35.8567L29.0365 34.048ZM28.9089 34.1344C28.9473 34.0988 28.9907 34.0696 29.0371 34.0477L29.8896 35.857C30.0271 35.7922 30.1563 35.7056 30.2716 35.5984L28.9089 34.1344ZM37.1637 26.63L28.9176 34.1265L30.2629 35.6063L38.509 28.1099L37.1637 26.63Z" fill="#009988"/>
</svg>
